<svg id="visual" viewBox="0 0 900 600" width="900" height="600" xmlns="http://www.w3.org/2000/svg" xmlns:xlink="http://www.w3.org/1999/xlink" version="1.1"><rect x="0" y="0" width="900" height="600" fill="#001220"></rect><defs><linearGradient id="grad1_0" x1="33.3%" y1="0%" x2="100%" y2="100%"><stop offset="20%" stop-color="#001220" stop-opacity="1"></stop><stop offset="80%" stop-color="#001220" stop-opacity="1"></stop></linearGradient></defs><defs><linearGradient id="grad2_0" x1="0%" y1="0%" x2="66.7%" y2="100%"><stop offset="20%" stop-color="#001220" stop-opacity="1"></stop><stop offset="80%" stop-color="#001220" stop-opacity="1"></stop></linearGradient></defs><g transform="translate(900, 0)"><path d="M0 351.5C-31.4 329.1 -62.8 306.8 -95.2 292.9C-127.5 279.1 -160.8 273.8 -186.9 257.3C-213 240.7 -231.9 212.8 -258.1 187.5C-284.2 162.2 -317.6 139.5 -334.3 108.6C-351.1 77.8 -351.3 38.9 -351.5 0L0 0Z" fill="#FBAE3C"></path></g><g transform="translate(0, 600)"><path d="M0 -351.5C32.7 -333.9 65.4 -316.3 98.6 -303.4C131.7 -290.4 165.3 -282.2 191.6 -263.7C217.9 -245.3 237 -216.8 262.1 -190.4C287.2 -164.1 318.4 -140 334.3 -108.6C350.2 -77.3 350.9 -38.6 351.5 0L0 0Z" fill="#FBAE3C"></path></g></svg>