<svg id="visual" viewBox="0 0 900 600" width="900" height="600" xmlns="http://www.w3.org/2000/svg" xmlns:xlink="http://www.w3.org/1999/xlink" version="1.1"><rect x="0" y="0" width="900" height="600" fill="#DEEBF8"></rect><defs><linearGradient id="grad1_0" x1="33.3%" y1="0%" x2="100%" y2="100%"><stop offset="20%" stop-color="#deebf8" stop-opacity="1"></stop><stop offset="80%" stop-color="#deebf8" stop-opacity="1"></stop></linearGradient></defs><defs><linearGradient id="grad2_0" x1="0%" y1="0%" x2="66.7%" y2="100%"><stop offset="20%" stop-color="#deebf8" stop-opacity="1"></stop><stop offset="80%" stop-color="#deebf8" stop-opacity="1"></stop></linearGradient></defs><g transform="translate(900, 0)"><path d="M0 243.4C-26.1 208.9 -52.2 174.5 -91.5 158.5C-130.8 142.5 -183.3 145 -210.8 121.7C-238.3 98.4 -240.8 49.2 -243.4 0L0 0Z" fill="#a6aed7"></path></g><g transform="translate(0, 600)"><path d="M0 -243.4C45.4 -238.6 90.7 -233.9 121.7 -210.8C152.6 -187.7 169.2 -146.2 187.1 -108C204.9 -69.8 224.2 -34.9 243.4 0L0 0Z" fill="#a6aed7"></path></g></svg>