<svg id="visual" viewBox="0 0 900 600" width="900" height="600" xmlns="http://www.w3.org/2000/svg" xmlns:xlink="http://www.w3.org/1999/xlink" version="1.1"><rect x="0" y="0" width="900" height="600" fill="#001220"></rect><path d="M0 318L18.8 310.5C37.7 303 75.3 288 112.8 290.8C150.3 293.7 187.7 314.3 225.2 307.7C262.7 301 300.3 267 337.8 230.2C375.3 193.3 412.7 153.7 450.2 160.8C487.7 168 525.3 222 562.8 252C600.3 282 637.7 288 675.2 277.2C712.7 266.3 750.3 238.7 787.8 222.3C825.3 206 862.7 201 881.3 198.5L900 196L900 601L881.3 601C862.7 601 825.3 601 787.8 601C750.3 601 712.7 601 675.2 601C637.7 601 600.3 601 562.8 601C525.3 601 487.7 601 450.2 601C412.7 601 375.3 601 337.8 601C300.3 601 262.7 601 225.2 601C187.7 601 150.3 601 112.8 601C75.3 601 37.7 601 18.8 601L0 601Z" fill="#fa7268"></path><path d="M0 280L18.8 280.2C37.7 280.3 75.3 280.7 112.8 299C150.3 317.3 187.7 353.7 225.2 369.3C262.7 385 300.3 380 337.8 372C375.3 364 412.7 353 450.2 331.5C487.7 310 525.3 278 562.8 258.5C600.3 239 637.7 232 675.2 245C712.7 258 750.3 291 787.8 320.5C825.3 350 862.7 376 881.3 389L900 402L900 601L881.3 601C862.7 601 825.3 601 787.8 601C750.3 601 712.7 601 675.2 601C637.7 601 600.3 601 562.8 601C525.3 601 487.7 601 450.2 601C412.7 601 375.3 601 337.8 601C300.3 601 262.7 601 225.2 601C187.7 601 150.3 601 112.8 601C75.3 601 37.7 601 18.8 601L0 601Z" fill="#eb5967"></path><path d="M0 358L18.8 371.3C37.7 384.7 75.3 411.3 112.8 424.7C150.3 438 187.7 438 225.2 438.8C262.7 439.7 300.3 441.3 337.8 434.3C375.3 427.3 412.7 411.7 450.2 402.7C487.7 393.7 525.3 391.3 562.8 403.5C600.3 415.7 637.7 442.3 675.2 433.2C712.7 424 750.3 379 787.8 356.8C825.3 334.7 862.7 335.3 881.3 335.7L900 336L900 601L881.3 601C862.7 601 825.3 601 787.8 601C750.3 601 712.7 601 675.2 601C637.7 601 600.3 601 562.8 601C525.3 601 487.7 601 450.2 601C412.7 601 375.3 601 337.8 601C300.3 601 262.7 601 225.2 601C187.7 601 150.3 601 112.8 601C75.3 601 37.7 601 18.8 601L0 601Z" fill="#da3f67"></path><path d="M0 472L18.8 483.2C37.7 494.3 75.3 516.7 112.8 513.8C150.3 511 187.7 483 225.2 471.5C262.7 460 300.3 465 337.8 461.7C375.3 458.3 412.7 446.7 450.2 456.8C487.7 467 525.3 499 562.8 508.2C600.3 517.3 637.7 503.7 675.2 488.3C712.7 473 750.3 456 787.8 455.5C825.3 455 862.7 471 881.3 479L900 487L900 601L881.3 601C862.7 601 825.3 601 787.8 601C750.3 601 712.7 601 675.2 601C637.7 601 600.3 601 562.8 601C525.3 601 487.7 601 450.2 601C412.7 601 375.3 601 337.8 601C300.3 601 262.7 601 225.2 601C187.7 601 150.3 601 112.8 601C75.3 601 37.7 601 18.8 601L0 601Z" fill="#c62368"></path></svg>